<svg width="400" height="240" viewBox="0 0 400 240" xmlns="http://www.w3.org/2000/svg">
    <rect width="400" height="240" fill="#23272f"/>
  
  <!-- Document -->
    <rect x="80" y="40" width="240" height="160" rx="4" fill="#23272f" stroke="#6b7280" stroke-width="1"/>
  
  <!-- Text lines -->
    <line x1="100" y1="70" x2="300" y2="70" stroke="#f3f4f6" stroke-width="2"/>
    <line x1="100" y1="90" x2="300" y2="90" stroke="#f3f4f6" stroke-width="2"/>
    <line x1="100" y1="110" x2="300" y2="110" stroke="#f3f4f6" stroke-width="2"/>
    <line x1="100" y1="130" x2="300" y2="130" stroke="#f3f4f6" stroke-width="2"/>
    <line x1="100" y1="150" x2="300" y2="150" stroke="#f3f4f6" stroke-width="2"/>
    <line x1="100" y1="170" x2="300" y2="170" stroke="#f3f4f6" stroke-width="2"/>
  
  <!-- Manual highlight -->
    <rect x="120" y="145" width="160" height="30" rx="2" fill="#fde68a" fill-opacity="0.5" stroke="#f472b6"
          stroke-width="2" stroke-dasharray="3,2"/>
  
  <!-- Cursor/pointer -->
  <path d="M180 90 L195 105 L185 105 L195 120 L185 115 L175 130 L170 110 L180 110 Z" fill="#4f46e5" />
  
  <!-- Text selection -->
    <rect x="130" y="85" width="110" height="12" rx="2" fill="#a78bfa" stroke="#6366f1" stroke-width="1"/>
  
  <!-- Selection icons -->
  <rect x="330" y="60" width="30" height="30" rx="4" fill="#f3f4f6" stroke="#6b7280" stroke-width="1" />
    <text x="345" y="82" font-family="Arial" font-size="16" fill="#23272f" text-anchor="middle">T</text>
  
  <rect x="330" y="100" width="30" height="30" rx="4" fill="#f3f4f6" stroke="#6b7280" stroke-width="1" />
    <rect x="335" y="105" width="20" height="20" rx="2" fill="none" stroke="#23272f" stroke-width="2"/>
</svg> 