<svg width="400" height="240" viewBox="0 0 400 240" xmlns="http://www.w3.org/2000/svg">
    <rect width="400" height="240" fill="#23272f"/>
  
  <!-- Document before redaction -->
    <rect x="60" y="60" width="140" height="120" rx="4" fill="#23272f" stroke="#6b7280" stroke-width="1"/>
  
  <!-- Text lines -->
    <line x1="75" y1="80" x2="185" y2="80" stroke="#f3f4f6" stroke-width="2"/>
    <line x1="75" y1="100" x2="185" y2="100" stroke="#f3f4f6" stroke-width="2"/>
    <line x1="75" y1="120" x2="185" y2="120" stroke="#f3f4f6" stroke-width="2"/>
    <line x1="75" y1="140" x2="185" y2="140" stroke="#f3f4f6" stroke-width="2"/>
    <line x1="75" y1="160" x2="185" y2="160" stroke="#f3f4f6" stroke-width="2"/>
  
  <!-- Highlighted text to be redacted -->
    <rect x="85" y="95" width="60" height="12" rx="2" fill="#fde68a" stroke="#f472b6" stroke-width="1"/>
    <rect x="110" y="115" width="40" height="12" rx="2" fill="#bbf7d0" stroke="#4ade80" stroke-width="1"/>
    <rect x="75" y="155" width="70" height="12" rx="2" fill="#a7f3d0" stroke="#22c55e" stroke-width="1"/>
  
  <!-- Arrow pointing to redacted version -->
  <path d="M210 120 L240 120" stroke="#6b7280" stroke-width="3" />
  <path d="M235 110 L245 120 L235 130" fill="none" stroke="#6b7280" stroke-width="3" />
  
  <!-- Document after redaction -->
    <rect x="250" y="60" width="140" height="120" rx="4" fill="#23272f" stroke="#6b7280" stroke-width="1"/>
  
  <!-- Text lines -->
    <line x1="265" y1="80" x2="375" y2="80" stroke="#f3f4f6" stroke-width="2"/>
    <line x1="265" y1="100" x2="375" y2="100" stroke="#f3f4f6" stroke-width="2"/>
    <line x1="265" y1="120" x2="375" y2="120" stroke="#f3f4f6" stroke-width="2"/>
    <line x1="265" y1="140" x2="375" y2="140" stroke="#f3f4f6" stroke-width="2"/>
    <line x1="265" y1="160" x2="375" y2="160" stroke="#f3f4f6" stroke-width="2"/>
  
  <!-- Redacted areas -->
  <rect x="285" y="95" width="60" height="12" rx="2" fill="#18181b" />
  <rect x="310" y="115" width="40" height="12" rx="2" fill="#18181b" />
  <rect x="275" y="155" width="70" height="12" rx="2" fill="#18181b" />
  
  <!-- Download button -->
  <rect x="270" y="190" width="100" height="30" rx="6" fill="#4f46e5" />
  <text x="320" y="210" font-family="Arial" font-size="12" fill="#ffffff" text-anchor="middle">DOWNLOAD PDF</text>
</svg> 